<svg xmlns="http://www.w3.org/2000/svg" viewBox="0 0 1200 800">
  <defs>
    <linearGradient id="bg" x1="0" x2="1" y1="0" y2="1">
      <stop offset="0%" stop-color="#09101b"/>
      <stop offset="100%" stop-color="#15233a"/>
    </linearGradient>
  </defs>
  <rect width="1200" height="800" fill="url(#bg)"/>
  <circle cx="230" cy="200" r="120" fill="#00c2a8" opacity="0.15"/>
  <path d="M600 180 L860 280 V430 C860 560 760 650 600 700 C440 650 340 560 340 430 V280 Z" fill="#13213a" stroke="#4f7cff" stroke-width="8"/>
  <path d="M600 250 L790 320 V430 C790 520 722 590 600 635 C478 590 410 520 410 430 V320 Z" fill="#18315f"/>
  <path d="M540 420 a60 60 0 1 1 120 0 v90 h-120z" fill="#00c2a8" opacity="0.85"/>
  <circle cx="600" cy="420" r="20" fill="#0b1020"/>
  <text x="320" y="760" font-family="Inter, Arial, sans-serif" font-size="54" fill="#f5f7fb">Seguridad Digital</text>
</svg>
